<svg id="Layer_1" data-name="Layer 1" xmlns="http://www.w3.org/2000/svg" viewBox="0 0 418.23 128.3">
    <defs>
        <style>
        .cls-1 {
            fill: #fff;
        }
        </style>
    </defs>
    <title>branchtrack-logo-white</title>
    <path class="cls-1" d="M146.27,2.53h13.27V20.8h.18a12.38,12.38,0,0,1,5.88-4.38,22.81,22.81,0,0,1,7.74-1.28,17.46,17.46,0,0,1,8.23,1.9,19.12,19.12,0,0,1,6.15,5.09,23.76,23.76,0,0,1,3.89,7.3A27.13,27.13,0,0,1,193,38a25.55,25.55,0,0,1-1.5,8.93,20.48,20.48,0,0,1-4.29,7,19.28,19.28,0,0,1-6.68,4.6,22.17,22.17,0,0,1-8.67,1.64,14.81,14.81,0,0,1-4.34-.62A18.47,18.47,0,0,1,163.74,58a15.59,15.59,0,0,1-3-2.16,14.65,14.65,0,0,1-2.08-2.35h-.18v5.66H146.27Zm12.21,35.16a11.11,11.11,0,0,0,2.79,7.87q2.79,3,7.83,3t7.83-3a11.11,11.11,0,0,0,2.79-7.87,11.11,11.11,0,0,0-2.79-7.87q-2.79-3-7.83-3t-7.83,3A11.11,11.11,0,0,0,158.47,37.69Z" />
    <path class="cls-1" d="M200.75,16.2H214v6.9h.18a16.29,16.29,0,0,1,5-6,12.73,12.73,0,0,1,7.34-2q1.15,0,2.3.09a11.6,11.6,0,0,1,2.12.36V27.69a20.5,20.5,0,0,0-2.79-.66,17.88,17.88,0,0,0-2.87-.22,14.13,14.13,0,0,0-6,1.06,8,8,0,0,0-3.4,3,11.22,11.22,0,0,0-1.55,4.55,44,44,0,0,0-.36,5.84v18H200.75Z" />
    <path class="cls-1" d="M261.76,53.79h-.18a12.49,12.49,0,0,1-5.88,5,20.21,20.21,0,0,1-7.74,1.5,19.91,19.91,0,0,1-5.79-.84,14.69,14.69,0,0,1-4.91-2.52,12.16,12.16,0,0,1-3.36-4.16A12.68,12.68,0,0,1,232.66,47,13.16,13.16,0,0,1,234,40.7a12.26,12.26,0,0,1,3.72-4.25,18.48,18.48,0,0,1,5.35-2.61,38.81,38.81,0,0,1,6.24-1.37,58.55,58.55,0,0,1,6.46-.53q3.23-.09,6-.09a6.9,6.9,0,0,0-2.52-5.62,9.11,9.11,0,0,0-6-2.08,13,13,0,0,0-6,1.37,16.24,16.24,0,0,0-4.82,3.76L235.4,22a24.31,24.31,0,0,1,8.67-5.18,31,31,0,0,1,10.26-1.72,26.78,26.78,0,0,1,9.59,1.46,14,14,0,0,1,6,4.29,16.51,16.51,0,0,1,3.14,6.94,45.67,45.67,0,0,1,.89,9.51V59.18H261.76Zm-3.27-13.45q-1.5,0-3.76.13a18.93,18.93,0,0,0-4.34.75,9.64,9.64,0,0,0-3.54,1.86,4.29,4.29,0,0,0-1.46,3.45,3.8,3.8,0,0,0,2,3.54,8.54,8.54,0,0,0,4.25,1.15,13.45,13.45,0,0,0,3.76-.53,11.16,11.16,0,0,0,3.23-1.51,7.27,7.27,0,0,0,2.26-2.48,7.14,7.14,0,0,0,.84-3.54V40.34Z" />
    <path class="cls-1" d="M282.28,16.2H295V22h.18A10.9,10.9,0,0,1,297,19.56a13,13,0,0,1,2.74-2.21,15.7,15.7,0,0,1,3.63-1.59,15.13,15.13,0,0,1,4.42-.62,18.35,18.35,0,0,1,8.14,1.55A11.81,11.81,0,0,1,320.71,21a17.34,17.34,0,0,1,2.35,6.46,49,49,0,0,1,.62,8v23.7H310.41V38.13q0-1.86-.13-3.85a12,12,0,0,0-.8-3.67,5.7,5.7,0,0,0-6-3.8,8.18,8.18,0,0,0-4.16.93,6.32,6.32,0,0,0-2.43,2.48,10.09,10.09,0,0,0-1.11,3.49,30,30,0,0,0-.27,4.06V59.18H282.28Z" />
    <path class="cls-1" d="M360.18,30.08a7.45,7.45,0,0,0-2.74-2.35,8.06,8.06,0,0,0-3.8-.93q-5,0-7.83,3A11.11,11.11,0,0,0,343,37.69a11.11,11.11,0,0,0,2.79,7.87q2.79,3,7.83,3a7.11,7.11,0,0,0,3.8-1,11.57,11.57,0,0,0,2.74-2.3l8.76,9.2a17,17,0,0,1-7.3,4.47,27.46,27.46,0,0,1-8,1.28,27,27,0,0,1-9.33-1.59,22.4,22.4,0,0,1-7.61-4.55A21.29,21.29,0,0,1,331.61,47a22.5,22.5,0,0,1-1.86-9.29,22.52,22.52,0,0,1,1.86-9.29,21.34,21.34,0,0,1,5.09-7.12,22.4,22.4,0,0,1,7.61-4.55,27,27,0,0,1,9.33-1.59,27.46,27.46,0,0,1,8,1.28,17,17,0,0,1,7.3,4.47Z" />
    <path class="cls-1" d="M387,2.53V22h.18a8.06,8.06,0,0,1,1.51-2.48,11.78,11.78,0,0,1,2.56-2.21,14,14,0,0,1,3.54-1.59,15.15,15.15,0,0,1,4.42-.62,18.35,18.35,0,0,1,8.14,1.55A11.81,11.81,0,0,1,412.14,21a17.34,17.34,0,0,1,2.35,6.46,49,49,0,0,1,.62,8v23.7H401.84V38.13q0-1.86-.13-3.85a12,12,0,0,0-.8-3.67,5.7,5.7,0,0,0-6-3.8,8.19,8.19,0,0,0-4.16.93,6.36,6.36,0,0,0-2.43,2.48,10.08,10.08,0,0,0-1.1,3.49,30,30,0,0,0-.27,4.06V59.18H373.71V2.53Z" />
    <path class="cls-1" d="M171.36,92.53H159.68v14.33a27.09,27.09,0,0,0,.18,3.23,6.53,6.53,0,0,0,.8,2.52,4,4,0,0,0,1.9,1.64,8.41,8.41,0,0,0,3.4.58,23.63,23.63,0,0,0,2.79-.22,4.75,4.75,0,0,0,2.61-1v11.06a20.29,20.29,0,0,1-4.6,1.06,42.29,42.29,0,0,1-4.69.26,25.56,25.56,0,0,1-6.19-.71,14.1,14.1,0,0,1-5-2.26,10.57,10.57,0,0,1-3.32-4,13.75,13.75,0,0,1-1.19-6V92.53h-6V81.91h6V68.23h13.27V81.91h11.67Z" />
    <path class="cls-1" d="M178.08,81.91h13.27v6.9h.18a16.29,16.29,0,0,1,5-6,12.73,12.73,0,0,1,7.34-2q1.15,0,2.3.09a11.6,11.6,0,0,1,2.12.36V93.41a20.5,20.5,0,0,0-2.79-.66,17.88,17.88,0,0,0-2.87-.22,14.13,14.13,0,0,0-6,1.06,8,8,0,0,0-3.4,3,11.22,11.22,0,0,0-1.55,4.55,44,44,0,0,0-.36,5.84v18H178.08Z" />
    <path class="cls-1" d="M239.28,119.5h-.18a12.49,12.49,0,0,1-5.88,5,20.21,20.21,0,0,1-7.74,1.5,19.91,19.91,0,0,1-5.79-.84,14.69,14.69,0,0,1-4.91-2.52,12.16,12.16,0,0,1-3.36-4.16,12.68,12.68,0,0,1-1.24-5.75,13.16,13.16,0,0,1,1.37-6.28,12.26,12.26,0,0,1,3.72-4.25,18.48,18.48,0,0,1,5.35-2.61,38.81,38.81,0,0,1,6.24-1.37,58.55,58.55,0,0,1,6.46-.53q3.23-.09,6-.09A6.9,6.9,0,0,0,236.77,92a9.11,9.11,0,0,0-6-2.08,13,13,0,0,0-6,1.37A16.24,16.24,0,0,0,220,95l-7.08-7.25a24.31,24.31,0,0,1,8.67-5.18,31,31,0,0,1,10.26-1.72,26.78,26.78,0,0,1,9.59,1.46,14,14,0,0,1,6,4.29,16.51,16.51,0,0,1,3.14,6.94,45.67,45.67,0,0,1,.89,9.51V124.9H239.28ZM236,106.06q-1.5,0-3.76.13a18.93,18.93,0,0,0-4.34.75,9.64,9.64,0,0,0-3.54,1.86,4.29,4.29,0,0,0-1.46,3.45,3.8,3.8,0,0,0,2,3.54,8.54,8.54,0,0,0,4.25,1.15,13.45,13.45,0,0,0,3.76-.53,11.16,11.16,0,0,0,3.23-1.51,7.27,7.27,0,0,0,2.26-2.48,7.14,7.14,0,0,0,.84-3.54v-2.83Z" />
    <path class="cls-1" d="M287.43,95.8a7.43,7.43,0,0,0-2.74-2.35,8.06,8.06,0,0,0-3.8-.93q-5,0-7.83,3a12.5,12.5,0,0,0,0,15.74q2.79,3,7.83,3a7.12,7.12,0,0,0,3.8-1,11.61,11.61,0,0,0,2.74-2.3l8.76,9.2a17,17,0,0,1-7.3,4.47,27.45,27.45,0,0,1-8,1.28,27,27,0,0,1-9.33-1.59,22.38,22.38,0,0,1-7.61-4.55,21.29,21.29,0,0,1-5.09-7.12,24.14,24.14,0,0,1,0-18.57A21.34,21.34,0,0,1,263.95,87a22.38,22.38,0,0,1,7.61-4.55,27,27,0,0,1,9.33-1.59,27.45,27.45,0,0,1,8,1.28,17,17,0,0,1,7.3,4.47Z" />
    <path class="cls-1" d="M301,68.23h13.27V98.89l14.68-17h16.27l-17.07,19.37,17.51,23.61H328.91l-14.51-21.76h-.18V124.9H301Z" />
    <path class="cls-1" d="M116.73,123.79H63.42C29.36,123.79,2.68,97.54,2.68,64c0-33.93,26.13-60.51,59.48-60.51s59.48,27.22,59.48,62v53.4A4.91,4.91,0,0,1,116.73,123.79ZM62.16,13.34C33.86,13.34,12.51,35.13,12.51,64,12.51,92,34.87,114,63.42,114h48.4V65.48C111.82,36.24,90,13.34,62.16,13.34Z" />
</svg>
